<?xml version="1.0" encoding="UTF-8" standalone="no"?>
<!-- Created with Inkscape (http://www.inkscape.org/) -->

<svg
   width="100.13109mm"
   height="60.274082mm"
   viewBox="0 0 100.13109 60.274082"
   version="1.1"
   id="svg1"
   xml:space="preserve"
   inkscape:version="1.3.2 (091e20e, 2023-11-25, custom)"
   sodipodi:docname="favicon.svg"
   inkscape:export-filename="IST_Final.png"
   inkscape:export-xdpi="300"
   inkscape:export-ydpi="300"
   xmlns:inkscape="http://www.inkscape.org/namespaces/inkscape"
   xmlns:sodipodi="http://sodipodi.sourceforge.net/DTD/sodipodi-0.dtd"
   xmlns="http://www.w3.org/2000/svg"
   xmlns:svg="http://www.w3.org/2000/svg"><sodipodi:namedview
     id="namedview1"
     pagecolor="#ffffff"
     bordercolor="#000000"
     borderopacity="0.25"
     inkscape:showpageshadow="2"
     inkscape:pageopacity="0.0"
     inkscape:pagecheckerboard="0"
     inkscape:deskcolor="#d1d1d1"
     inkscape:document-units="mm"
     inkscape:zoom="1.0449705"
     inkscape:cx="23.92412"
     inkscape:cy="96.653446"
     inkscape:window-width="2291"
     inkscape:window-height="1360"
     inkscape:window-x="1080"
     inkscape:window-y="192"
     inkscape:window-maximized="0"
     inkscape:current-layer="layer1" /><defs
     id="defs1" /><g
     inkscape:label="Layer 1"
     inkscape:groupmode="layer"
     id="layer1"
     transform="translate(-44.748193,-160.36255)"><path
       d="m 54.75038,160.45076 v 4.96439 5.0952 h 9.971657 v 39.98124 h -9.940255 l -9.971656,9.97166 19.911911,0.0429 10.084729,0.0215 4.981757,0.0107 4.985839,0.0107 c 2.7476,1e-5 4.97513,-2.23711 4.975099,-4.99654 h 0.01038 v -5.06084 -1.08555 -22.83159 -1.17865 l 4.99618,0.009 v 0.10826 4.97696 2.49366 12.43132 5.07635 5.06084 4.99655 h 10.022649 v -10.05739 -25.0773 h 0.0184 l 15.02917,0.0274 9.97757,-9.97757 h -35.04786 -9.453269 -0.294856 -0.198409 -0.03106 -0.0019 -0.19214 c -0.542148,0.0182 -1.077711,0.12524 -1.585456,0.31701 -0.05738,0.021 -0.117857,0.0334 -0.174395,0.0566 -0.250557,0.10721 -0.487962,0.23504 -0.71311,0.37835 -0.309904,0.18687 -0.606992,0.3954 -0.870132,0.65177 -0.939262,0.94324 -1.459768,2.22529 -1.445054,3.55925 l -0.0075,-0.002 v 4.96108 1.28766 22.73181 1.08556 h -4.950358 -0.03134 v -5.05752 -14.78789 -15.18215 -0.0322 c -0.0028,-1.32226 0.519556,-2.58928 1.452448,-3.52231 0.873769,-0.8495 2.030403,-1.34741 3.250348,-1.39924 0.179528,-0.01 0.359484,-0.01 0.539078,0 h 4.729786 2.452261 47.526858 l 10.0596,-10.0596 H 74.806999 Z"
       style="fill:#ffffff;fill-opacity:1;stroke:#ffffff;stroke-width:0.175174;stroke-linecap:square;stroke-linejoin:bevel;stroke-opacity:1;paint-order:fill markers stroke"
       id="path53" /></g></svg>
